<?xml version="1.0" encoding="UTF-8"?>
<svg version="1.1" xmlns="http://www.w3.org/2000/svg" width="736" height="552">
<path d="M0 0 C242.88 0 485.76 0 736 0 C736 182.16 736 364.32 736 552 C493.12 552 250.24 552 0 552 C0 369.84 0 187.68 0 0 Z " fill="#FEFEFE" transform="translate(0,0)"/>
<path d="M0 0 C6.02755901 -0.37434678 12.04820653 -0.64447327 18.0847168 -0.82397461 C20.13116366 -0.89885051 22.17682312 -1.00081095 24.22045898 -1.1315918 C40.69415987 -2.15842967 40.69415987 -2.15842967 46.1887207 1.42904663 C50.02178752 4.87678151 52.97660061 8.8408176 55.77549744 13.14981079 C57.54648344 15.82572123 59.56596669 18.22780796 61.625 20.6875 C62.32753906 21.55632812 63.03007812 22.42515625 63.75390625 23.3203125 C66.71453454 26.85247078 69.84143963 30.21313055 72.98046875 33.58618164 C76.54073376 37.43584319 79.81202067 41.44834412 83.04296875 45.57421875 C85.79914642 48.99055873 88.76453968 52.20011954 91.72265625 55.44140625 C94.02357644 58.02648811 96.20523459 60.67923085 98.375 63.375 C101.65564595 67.43565967 105.06958169 71.3078777 108.625 75.125 C112.38980594 79.1680602 115.87089365 83.3218281 119.19921875 87.73046875 C122.09787271 91.38365302 125.30119323 94.75265369 128.4609375 98.1796875 C131.65295057 101.7252774 134.64731301 105.39525512 137.56192017 109.1714325 C139.84866725 112.03758509 139.84866725 112.03758509 142.59262085 113.90583801 C146.90064838 117.33808524 149.48749745 120.40657573 150.55536652 125.81032944 C151.37462164 133.97394777 151.18088108 142.17474309 151.01393938 150.36611533 C150.95098405 153.98003852 150.94551796 157.59406337 150.9336853 161.20845032 C150.90273108 168.03705955 150.82084996 174.86404802 150.72019041 181.6919468 C150.60801281 189.47175122 150.55333403 197.25163732 150.50323606 205.03205049 C150.39899855 221.02246261 150.21578077 237.01064492 150 253 C138.78 253 127.56 253 116 253 C116 240.79 116 228.58 116 216 C113.69 215.67 111.38 215.34 109 215 C106.89526367 214.27905273 106.89526367 214.27905273 105.16796875 213.43359375 C104.51965088 213.11729004 103.87133301 212.80098633 103.20336914 212.47509766 C102.53813232 212.13269043 101.87289551 211.7902832 101.1875 211.4375 C100.48681396 211.07962402 99.78612793 210.72174805 99.06420898 210.35302734 C81.3445734 201.03077177 69.41103453 185.58067691 62.7890625 166.890625 C60.43738661 158.27557471 59.73512078 150.30127454 59.875 141.375 C59.91625 137.62125 59.9575 133.8675 60 130 C70.89 130 81.78 130 93 130 C93.061875 133.5475 93.12375 137.095 93.1875 140.75 C93.49780383 149.8282947 94.19444701 157.10795363 99 165 C99.44472656 165.73992187 99.88945312 166.47984375 100.34765625 167.2421875 C104.23861467 172.98649938 109.77709616 177.88854808 116 181 C116.18039962 174.72217025 116.27205858 168.45106223 116.28686523 162.1706543 C116.30374465 160.0417578 116.34352443 157.91290022 116.40795898 155.78491211 C116.73820468 144.36592874 116.88195539 135.19046185 108.80078125 126.44921875 C107.13654555 124.78155695 105.4391719 123.17474561 103.69145203 121.5949707 C100.83825529 118.90452183 98.38095655 115.88484871 95.875 112.875 C94.88818758 111.7200975 93.90008864 110.56629182 92.91015625 109.4140625 C90.49673366 106.58831663 88.10008602 103.74879713 85.70678711 100.90600586 C85.01661499 100.08628296 85.01661499 100.08628296 84.3125 99.25 C83.8594751 98.71189697 83.4064502 98.17379395 82.93969727 97.61938477 C80.12589681 94.29110746 77.24756699 91.03403757 74.3125 87.8125 C71.4345172 84.64876005 68.70572874 81.42468695 66.0625 78.0625 C62.41887809 73.43567852 58.49995274 69.12322586 54.51171875 64.79296875 C51.25582724 61.17249841 48.20644951 57.40483045 45.1484375 53.6171875 C42.52907651 50.42632957 39.78154822 47.36787307 37.01953125 44.30078125 C34.83811823 41.81557376 32.76169966 39.26274966 30.6875 36.6875 C27.42044495 32.6556954 24.03194903 28.79693722 20.5 25 C14.62550405 18.68230073 9.1479594 12.07213097 3.87109375 5.24609375 C2.19725245 2.93155307 2.19725245 2.93155307 0 2 C0 1.34 0 0.68 0 0 Z " fill="#040404" transform="translate(235,168)"/>
<path d="M0 0 C0.79986328 -0.01023193 1.59972656 -0.02046387 2.42382812 -0.03100586 C7.96233317 0.0507454 12.3376824 1.17816616 17.375 3.4375 C18.261875 3.81390625 19.14875 4.1903125 20.0625 4.578125 C31.98837581 10.29932218 38.94527605 18.47893088 44.25 30.5 C46.375 37.4375 46.375 37.4375 46.375 53.4375 C35.485 53.4375 24.595 53.4375 13.375 53.4375 C13.045 49.8075 12.715 46.1775 12.375 42.4375 C10.12024574 37.92799148 8.79020623 36.72686619 4.375 34.4375 C-0.09214521 33.54763044 -2.95017458 34.08759052 -7 36.1875 C-10.8811171 39.5141718 -11.45983981 41.04543552 -12.0625 46.125 C-11.66234301 56.5100266 -2.56672222 64.40559517 3.90429688 71.74462891 C5.96019632 74.11109749 7.91688934 76.55236168 9.875 79 C13.72393583 83.75004785 17.82320305 88.20877423 21.99951172 92.66772461 C25.68077573 96.62134804 29.07188558 100.73098007 32.39453125 104.9921875 C34.55773274 107.66312268 36.84889089 110.16899788 39.1875 112.6875 C44.97194398 118.97919522 50.22262657 125.62592252 55.375 132.4375 C56.04789062 133.32566406 56.72078125 134.21382812 57.4140625 135.12890625 C70.86995177 153.59370584 75.42221275 173.56219841 72.984375 196.0390625 C69.31114873 214.64065708 58.39476638 231.05050548 43.375 242.4375 C41.29641207 243.58009948 39.18708645 244.66855808 37.05078125 245.69921875 C35.98384033 246.21830811 34.91689941 246.73739746 33.81762695 247.2722168 C33.01156006 247.65676025 32.20549316 248.04130371 31.375 248.4375 C31.25082916 242.60261686 31.16039176 236.76851316 31.1003418 230.93261719 C31.07529317 228.95005891 31.04124416 226.96759211 30.99780273 224.98535156 C30.93672381 222.12542074 30.90869371 219.26671708 30.88671875 216.40625 C30.86091232 215.52884155 30.8351059 214.65143311 30.80851746 213.74743652 C30.80559959 207.25531091 32.63714156 203.62969043 36.375 198.4375 C40.6647364 190.15387109 40.86898928 180.07481954 38.49609375 171.12109375 C34.39778244 160.74682057 28.19712878 152.00840951 20.62890625 143.90234375 C18.42381605 141.49088463 16.3917354 139.00753457 14.375 136.4375 C10.97380893 132.1203446 7.35963473 128.05850382 3.65625 124 C1.33471179 121.39224475 -0.87030355 118.71708856 -3.0625 116 C-6.13836588 112.19662497 -9.31253166 108.53667348 -12.625 104.9375 C-16.7784123 100.42348136 -20.68989113 95.76614142 -24.53515625 90.98828125 C-26.37965622 88.73695699 -28.2866671 86.58448542 -30.25 84.4375 C-41.70735887 71.38514918 -46.79555639 56.79824366 -45.86035156 39.51660156 C-45.00308788 31.94351289 -41.29280901 24.37834783 -36.625 18.4375 C-36.23054688 17.88964844 -35.83609375 17.34179688 -35.4296875 16.77734375 C-31.14298649 11.20463243 -25.70991414 7.83294933 -19.625 4.4375 C-18.87734375 3.99921875 -18.1296875 3.5609375 -17.359375 3.109375 C-11.70243203 0.30068304 -6.20558461 0.06141192 0 0 Z " fill="#030303" transform="translate(367.625,130.5625)"/>
<path d="M0 0 C2.06947913 0.06530421 4.13915695 0.12460319 6.20898438 0.17773438 C11.24844728 0.32007171 16.27826017 0.54375702 21.3125 0.8125 C21.3125 2.8125 21.3125 2.8125 19.375 4.8125 C18.91738281 5.25335938 18.45976562 5.69421875 17.98828125 6.1484375 C12.58712941 11.51181905 7.65616185 17.33489888 2.875 23.25 C-0.98458603 28.02246203 -5.05949991 32.54359109 -9.21484375 37.05859375 C-12.43459519 40.64457284 -15.44655176 44.37951492 -18.47265625 48.12890625 C-21.35230887 51.61800916 -24.39443876 54.94246921 -27.44140625 58.28515625 C-29.74937598 60.88212393 -31.94305863 63.54654013 -34.125 66.25 C-38.76041305 71.982843 -43.67849892 77.40612514 -48.6875 82.8125 C-54.99029725 77.85072344 -59.70080924 72.06393116 -64.6875 65.8125 C-66.66672698 63.46014006 -68.67403819 61.13572516 -70.6875 58.8125 C-69.00409583 54.75252523 -66.17601096 51.69979077 -63.3125 48.4375 C-62.22256092 47.18107227 -61.1327199 45.92455947 -60.04296875 44.66796875 C-59.20644775 43.70769775 -59.20644775 43.70769775 -58.35302734 42.72802734 C-55.76206448 39.74815419 -53.19331839 36.74938839 -50.625 33.75 C-50.12895264 33.17145264 -49.63290527 32.59290527 -49.12182617 31.99682617 C-45.77622785 28.09244581 -42.44473614 24.17638843 -39.125 20.25 C-38.26229492 19.26209473 -37.39958984 18.27418945 -36.51074219 17.25634766 C-34.63498004 15.0519657 -33.04053579 12.84634634 -31.54785156 10.36865234 C-23.61927792 -1.99146339 -13.54789006 -0.74503123 0 0 Z " fill="#040404" transform="translate(479.6875,167.1875)"/>
<path d="M0 0 C0.99 0.33 1.98 0.66 3 1 C1.98873047 1.99580078 1.98873047 1.99580078 0.95703125 3.01171875 C-2.5574902 6.5262402 -5.92966468 10.17185849 -9.3125 13.8125 C-9.95767578 14.50537109 -10.60285156 15.19824219 -11.26757812 15.91210938 C-12.84587161 17.60731349 -14.42332302 19.30329254 -16 21 C-16 16.81148773 -14.22013447 15.75459628 -11.375 12.75 C-10.45756911 11.7702463 -9.54090154 10.78977728 -8.625 9.80859375 C-7.75875 8.88175781 -6.8925 7.95492187 -6 7 C-3.97079718 4.68940382 -1.98410269 2.34959529 0 0 Z " fill="#D8D8D8" transform="translate(477,196)"/>
<path d="M0 0 C0.99 0.33 1.98 0.66 3 1 C2.67 2.32 2.34 3.64 2 5 C0.02 5.33 -1.96 5.66 -4 6 C-2.68 4.02 -1.36 2.04 0 0 Z " fill="#E9E9E9" transform="translate(428,354)"/>
</svg>
