<svg xmlns="http://www.w3.org/2000/svg" width="200" height="200" viewBox="0 0 200 200" version="1.1" xmlns:xlink="http://www.w3.org/1999/xlink" transform="matrix(-1,1.2246467991473532e-16,1.2246467991473532e-16,1,0,0)"><path d="M32 44q4.474-.045 8.948-.066 1.522-.009 3.044-.024 2.187-.021 4.376-.027l1.374-.019h1.286l1.128-.008c2.119.292 3.384 1.591 4.745 3.144l.945 1.076a232 232 0 0 1 3.628 4.41c1.264 1.519 2.603 2.962 3.941 4.416a79 79 0 0 1 2.761 3.274 86 86 0 0 0 4.025 4.625 105 105 0 0 1 4.828 5.614c1.784 2.177 3.645 4.287 5.494 6.408a1951 1951 0 0 1 3.954 4.554A1654 1654 0 0 1 93.2 89.2c3.402 3.979 3.402 3.979 6.839 7.926a322 322 0 0 1 1.884 2.184l.618.722a354 354 0 0 1 1.26 1.484c.905 1.067 1.807 2.091 2.805 3.075 3.079 3.04 2.609 6.456 2.645 10.58.005 1.212.003 2.423.002 3.634l.002 2.005q.001 2.688-.003 5.375l-.003 3.347a2495 2495 0 0 1-.211 31.591q-.019 1.426-.036 2.853-.028 2.222-.063 4.445-.018 1.2-.032 2.399l-.024 1.422-.019 1.241c-.064.917-.064.917-.464 1.317-1.236.04-2.464.056-3.7.053l-1.125.001q-1.181 0-2.361-.002-1.813-.002-3.626.003l-2.288-.002-1.104.002c-2.55-.01-2.55-.01-2.996-.456a26 26 0 0 1-.082-1.734l-.024-1.116-.02-1.214-.025-1.236q-.039-1.962-.074-3.925l-.052-2.654q-.065-3.26-.123-6.521l-.654-.233q-1.488-.534-2.974-1.073l-1.029-.366c-9.508-3.458-16.615-10.933-20.943-19.927-3.21-7.244-3.739-14.965-3.2-22.8l.4-.8h17.2c.529 1.058.458 1.874.47 3.058.14 7.686.566 13.91 6.13 19.717 1.323 1.267 2.492 2.168 4.2 2.825.658-.658.488-1.432.522-2.339l.047-1.256c.055-1.918.094-3.837.126-5.756q.031-1.51.09-3.02c.459-6.498.459-6.498-2.017-12.264a29 29 0 0 0-2.545-2.41c-1.064-.95-1.921-2.051-2.822-3.155l-1.084-1.283-.55-.65c-2.382-2.81-4.762-5.618-7.241-8.342-1.512-1.666-2.936-3.39-4.352-5.138-1.883-2.298-3.831-4.54-5.773-6.788l-.677-.783a1170 1170 0 0 0-5.948-6.842c-1.867-2.129-3.702-4.285-5.543-6.436L49.6 66.4l-3.67-4.284-.632-.739-1.228-1.435a189 189 0 0 0-4.026-4.56C39.6 54.8 39.6 54.8 39.6 54h-.8a38 38 0 0 1-1.625-1.95c-1.557-1.962-3.2-3.782-4.953-5.574L31.6 45.6c.161-.855.161-.855.4-1.6" fill="#F7F7F7"></path><path d="m108.4 26.4 1.339.548c6.281 2.85 10.449 7.356 13.011 13.802 1.065 2.87 1.314 5.314 1.3 8.35l.005 1.061-.002 1.008-.002.92C124 52.8 124 52.8 123.6 53.2c-1.236.04-2.464.056-3.7.053l-1.125.001q-1.181 0-2.361-.002-1.813-.002-3.626.003l-2.288-.002-1.104.002c-2.55-.01-2.55-.01-2.996-.456-.139-1.31-.268-2.619-.359-3.934-.222-2.224-.857-3.285-2.441-4.866-1.585-.918-2.991-.984-4.8-.8-1.917.685-3.313 1.434-4.4 3.2-.703 2.437-.491 4.485.662 6.722.984 1.608 2.121 3.04 3.338 4.478l.513.608A548 548 0 0 0 103.2 63.2l.648.748 2.608 3.008q2.193 2.528 4.369 5.069l.592.692q1.513 1.768 3.023 3.538c1.788 2.095 3.58 4.182 5.434 6.22 1.854 2.047 3.598 4.171 5.325 6.325l.535.657c7.882 9.675 13.36 20.592 12.265 33.343-1.267 11.217-6.912 20.098-15.598 27.119-4.473 3.281-4.473 3.281-6.801 3.281-.477-.954-.461-1.562-.477-2.626l-.02-1.15q-.028-2.619-.043-5.238a290 290 0 0 0-.033-2.753 326 326 0 0 1-.036-3.982l-.028-1.229c.009-2.935.758-4.91 2.237-7.421 2.634-4.967 3.4-9.696 2-15.2-1.93-6.022-5.668-10.865-9.928-15.444-.932-1.022-1.803-2.08-2.672-3.156-1.444-1.786-2.955-3.492-4.502-5.189a88 88 0 0 1-2.674-3.186c-1.544-1.91-3.176-3.72-4.839-5.527a79 79 0 0 1-2.761-3.274 81 81 0 0 0-3.975-4.55c-6.772-7.29-12.215-14.869-12.06-25.174.288-6.812 3.155-12.47 8.024-17.175C90.151 25.238 100.44 23.1 108.4 26.4" fill="#F4F4F4"></path><path d="M148.882 43.954h1.286l1.386.006 1.421.002q2.25.004 4.499.012l3.048.006q3.738.007 7.477.02c.252.732.252.732.4 1.6a22 22 0 0 1-2 2.275 330 330 0 0 0-1.224 1.274l-.609.636c-1.038 1.126-1.933 2.358-2.831 3.597L161.2 54h-.8l-.298.686c-.588 1.071-1.293 1.846-2.127 2.739a90 90 0 0 0-3.675 4.25c-1.87 2.309-3.813 4.548-5.764 6.788a583 583 0 0 0-3.836 4.462 199 199 0 0 1-4.175 4.75c-2.626 2.898-5.106 5.904-7.325 9.125-1.715-.19-2.506-.664-3.6-2V84h-.8a38 38 0 0 1-1.625-1.95 105 105 0 0 0-4.836-5.612c-1.543-1.748-1.543-1.748-1.526-2.96.533-1.484 1.501-2.428 2.588-3.528q.662-.692 1.32-1.386l.661-.695c1.189-1.284 2.266-2.66 3.361-4.024a79 79 0 0 1 2.658-3.045 91 91 0 0 0 3.575-4.175c1.541-1.905 3.167-3.71 4.827-5.512 1.333-1.486 2.587-3.03 3.834-4.588 1.639-1.984 2.62-2.576 5.246-2.57" fill="#F3F3F3"></path><path d="M106.4 105.2c1.059.631 1.669 1.034 2.4 2 .812 3.708.458 7.815.453 11.606l.002 2.005q.001 2.688-.003 5.375l-.003 3.347a2495 2495 0 0 1-.211 31.591q-.019 1.426-.036 2.853-.028 2.222-.063 4.445-.018 1.2-.032 2.399l-.024 1.422-.019 1.241c-.064.916-.064.916-.464 1.316-1.236.04-2.464.056-3.7.053l-1.125.001q-1.181 0-2.361-.002-1.813-.002-3.626.003l-2.288-.002-1.104.002c-2.55-.01-2.55-.01-2.996-.456a26 26 0 0 1-.063-1.722l-.012-1.108-.009-1.206-.034-2.501q-.025-1.982-.042-3.964a571 571 0 0 0-.049-3.81l-.004-1.204-.02-1.112-.01-.982-.157-.79-1.2-.8 2.4.4V174h16.4q-.023-12.945-.074-25.89a4818 4818 0 0 1-.035-12.02q-.008-5.238-.034-10.476-.014-2.773-.015-5.548 0-2.61-.02-5.22-.005-.959-.002-1.918a175 175 0 0 0-.014-2.615l-.004-1.479c-.242-1.468-.702-1.882-1.803-2.834z" fill="#4E4E4E"></path><path d="m89.6 155.2 2.4.4V174h16.4v.8q-3.578.015-7.156.022l-2.436.008q-1.747.007-3.494.009l-1.107.006c-.869 0-1.738-.02-2.607-.045-.628-.628-.456-1.25-.463-2.122l-.012-1.108-.009-1.206-.034-2.501q-.025-1.982-.042-3.964a571 571 0 0 0-.049-3.81l-.004-1.204-.02-1.112-.01-.982L90.8 156z" fill="#909090"></path><path d="M148.882 43.954h1.286l1.386.006 1.421.002q2.25.004 4.499.012l3.048.006q3.738.007 7.477.02l.4 1.6-2 1.6.8-2.4q-4.463.01-8.926.061-1.518.014-3.036.017a423 423 0 0 0-4.366.039l-1.368-.005c-2.708.025-2.708.025-5.008 1.305l-.895.983c.516-1.151 1.03-1.985 2-2.8 1.212-.404 2.016-.448 3.282-.446" fill="#5A5A5A"></path><path d="M32 44q4.474-.045 8.948-.066 1.522-.009 3.044-.024 2.187-.021 4.376-.027l1.374-.019h1.286l1.128-.008c1.274.176 2.011.59 3.045 1.344l.8 1.2c-1.55-.75-1.55-.75-2-1.2a36 36 0 0 0-2.028-.082l-1.31-.024-1.426-.02-1.451-.025q-2.305-.039-4.61-.073l-3.116-.052q-3.831-.066-7.66-.124l1.2 1.6-.4.8c-.825-.7-.825-.7-1.6-1.6.152-.856.152-.856.4-1.6" fill="#5E5E5E"></path><path d="m90.4 113.2 1.2.8c.144.992.144.992.136 2.257v1.432l-.019 1.552-.005 1.584q-.008 2.085-.03 4.17-.017 2.128-.024 4.255-.02 4.175-.058 8.35c-3.428-.616-5.671-3.14-8-5.6l.4-.8.791.833 1.059 1.092 1.041 1.083c1.115.998 2.146 1.59 3.509 2.192.67-.67.451-1.49.452-2.409l.004-1.299-.002-1.414.001-1.442-.002-3.028q-.002-2.322.003-4.644l-.002-2.936.002-1.409-.004-1.306-.001-1.151c-.011-1.02-.011-1.02-.451-2.162" fill="#3D3D3D"></path><path d="M136.4 108.8h.4c1.307 6.145 1.924 12.223.4 18.4h-.4l.4-13.2h-.8z" fill="#757575"></path><path d="M119.6 113.6h.8c.385 1.156.452 1.897.453 3.098l.002 1.115-.005 1.162.005 1.157-.002 1.116-.002 1.018c-.05.897-.202 1.673-.452 2.534h-.8l-.125 1.125c-.288 1.335-.504 1.608-1.475 2.475l.234-.678c1.532-4.719 1.971-9.199 1.366-14.122" fill="#707070"></path><path d="M63.6 129.2c.8.4.8.4 1.2 1.374l.4 1.201c.533 1.674.533 1.674 1.6 3.025l.4 1.225c.263 1.224.263 1.224 1.2 1.575.25 1.025.25 1.025.4 2h.8c1.289 2.109 1.289 2.109 1.6 2.8l-.4.8c-2.805-3.521-7.2-9.334-7.2-14" fill="#818181"></path><path d="m99.95 25.075 1.055.001c2.598.039 4.955.383 7.395 1.324-1.309.415-1.696.376-3.125.025-3.646-.889-7.31-.692-10.875.375-1.086.087-2.107.038-3.2 0 2.587-1.725 5.72-1.744 8.75-1.725" fill="#737373"></path><path d="M91.2 128.8h.4v8.8c-3.448-.69-5.638-3.105-8-5.6l.4-.8.791.833 1.059 1.092 1.041 1.083c1.115.998 2.146 1.59 3.509 2.192.606-.606.485-1.17.526-2.014l.051-.98.048-1.031.052-1.035q.064-1.27.123-2.54" fill="#666"></path><path d="M32.4 44.8H54v.4l-15.82.312-1.334.027-1.238.024-1.09.022q-1.059.017-2.119.015z" fill="#DFDFDF"></path><path d="m98.542 41.805 1.533.07 1.542.055 1.183.07.8 1.6-.825-.2c-2.466-.42-4.436-.164-6.775.6.645-1.522.857-1.95 2.542-2.195" fill="#717171"></path><path d="m136 55.6.4.8c-1.165 2.737-2.578 3.889-5.2 5.2.646-1.56 1.712-2.685 2.85-3.9l.567-.614A380 380 0 0 1 136 55.6" fill="#8C8C8C"></path><path d="m152.4 61.6 1.6.4q-.847 1.065-1.7 2.125l-.956 1.195c-.805.92-1.536 1.602-2.544 2.28v-2l1.6-.4V64h.8v-.8h1.2z" fill="#A1A1A1"></path><path d="M78.8 73.2c1.982 1.547 3.586 3.276 5.2 5.2l-.4.8-.875-.925c-1.04-1.096-1.04-1.096-2.2-1.625-1.315-.924-1.408-1.922-1.725-3.45" fill="#878787"></path><path d="M134.8 131.6h.8c-.251 1.801-.958 3.297-1.775 4.9l-.379.772c-.945 1.877-.945 1.877-1.846 2.328l.325-.775c.616-1.59 1.145-3.205 1.675-4.825h.8z" fill="#868686"></path><path d="M71.6 64.8c1.81 1.471 3.358 2.964 4.8 4.8l-.4.8c-1.83-.89-2.365-1.778-3.2-3.6a40 40 0 0 0-1.2-1.2z" fill="#6C6C6C"></path><path d="M118.8 82c1.656 1.32 3.035 2.469 4 4.4l-.925-.375a44 44 0 0 0-2.275-.825l-.175-.925c-.21-1.108-.21-1.108-.625-2.275" fill="#868686"></path><path d="M48.8 64.8h.8l.55.75c.574.902.574.902 1.475 1.175.775.475.775.475 1.275 1.925l.3 1.35c-1.561-1.515-3.058-3.084-4.4-4.8z" fill="#8D8D8D"></path><path d="M91.2 128.8h.4v8.8h-1.2l.192-.692c.206-.897.289-1.721.334-2.639l.051-.969.048-1 .052-1.019q.063-1.24.123-2.481" fill="#5C5C5C"></path><path d="M71.2 90.8c1.539.616 2.276 1.004 3.175 2.425L74.8 94.4l-.4.8a328 328 0 0 1-1.6-1.75l-.9-.984c-.7-.866-.7-.866-.7-1.666" fill="#858585"></path><path d="M77.6 57.6a16.6 16.6 0 0 1 2.8 4.8l-.4.8c-1.263-1.836-2.229-3.318-2.4-5.6" fill="#555"></path><path d="M80.8 34.4c.4 1.6.4 1.6 0 2.4h-1.2l-.8 2-.4-.8z" fill="#777"></path><path d="M98.4 42h4.4l.8 1.6-2-.4v-.8h-3.2z" fill="#ADADAD"></path><path d="M124.8 88.8c1.186 1.123 2.178 2.073 2.8 3.6a65 65 0 0 1-1.4-.9l-.788-.506-.612-.594z" fill="#7C7C7C"></path><path d="M165.6 44.4h2.8c-.159 1.154-.316 1.529-1.225 2.3l-.775.5.8-2.4z" fill="#8C8C8C"></path><path d="M142 73.6h1.6c-.548 1.264-.796 1.597-2 2.4a40 40 0 0 1 0-2z" fill="#B3B3B3"></path><path d="M136.4 127.2h.4q-.07.876-.15 1.75l-.084.984c-.166.866-.166.866-.966 1.666-.114-2.972-.114-2.972.8-4.4" fill="#7B7B7B"></path><path d="m147.6 68.4.8.4-2 2.4-.8-1.6h.8v-.8z" fill="#959595"></path></svg>