<?xml version="1.0" encoding="UTF-8"?>
<svg version="1.1" xmlns="http://www.w3.org/2000/svg" width="500" height="500">
<path d="M0 0 C7.45639508 -0.07608273 14.91269 -0.12861377 22.36938477 -0.16479492 C24.90588115 -0.17987863 27.44235148 -0.20034831 29.97875977 -0.22631836 C33.62522822 -0.26271881 37.27135173 -0.27973082 40.91796875 -0.29296875 C42.61822456 -0.31619453 42.61822456 -0.31619453 44.35282898 -0.33988953 C45.41355118 -0.34011612 46.47427338 -0.34034271 47.56713867 -0.34057617 C48.49757492 -0.34723801 49.42801117 -0.35389984 50.38664246 -0.36076355 C55.68522091 0.370684 58.84563623 3.61650355 62.25 7.5 C63.02988281 8.38816406 63.80976563 9.27632812 64.61328125 10.19140625 C67.69590527 13.81891308 70.69029136 17.51356028 73.68359375 21.21484375 C76.8421014 25.01250978 80.19043906 28.6205848 83.53515625 32.25390625 C85.92707297 34.91875166 88.19254884 37.64831825 90.4375 40.4375 C93.65945075 44.43226434 97.00677983 48.24531667 100.5 52 C104.71523056 56.53523687 108.68421438 61.21556481 112.5703125 66.03515625 C117.02988623 71.47698335 121.68295755 76.75334924 126.30615234 82.05615234 C129.06346675 85.22042696 131.81336498 88.39111895 134.5625 91.5625 C135.10028076 92.18278076 135.63806152 92.80306152 136.19213867 93.44213867 C141.82075593 99.93917601 147.41202447 106.46801175 153 113 C161.50362293 122.94732144 161.50362293 122.94732144 170.09765625 132.81640625 C171.67707958 134.62933775 173.24549074 136.4503737 174.80859375 138.27734375 C175.57369263 139.17090576 175.57369263 139.17090576 176.35424805 140.08251953 C177.40728384 141.31628452 178.45694965 142.55293403 179.50317383 143.79248047 C181.76582425 146.46128433 184.02168648 149.0213834 186.515625 151.48046875 C194.21301265 159.08094684 193.03851939 167.61930131 193.12939453 177.93066406 C193.14054656 180.95901589 193.13704283 183.98726124 193.1328125 187.015625 C193.13387384 188.68672203 193.13526097 190.35781889 193.13694763 192.02891541 C193.13974363 196.50820121 193.13537069 200.98745117 193.12877274 205.46673203 C193.1249915 208.25627436 193.12293079 211.0458133 193.12130737 213.83535767 C193.1032673 240.16290362 192.94517966 266.48760014 192.59383392 292.81285095 C192.56246326 295.19028403 192.53271911 297.56773328 192.50323486 299.94519043 C192.45662557 303.64934275 192.40438185 307.3533713 192.34718513 311.05737495 C192.31714439 313.05635133 192.29138417 315.05539059 192.26573181 317.0544281 C192.24579666 318.22780228 192.22586151 319.40117645 192.20532227 320.61010742 C192.18977798 321.63359787 192.1742337 322.65708832 192.15821838 323.71159363 C192 326 192 326 191 327 C187.90918535 327.1011692 184.84117445 327.13968558 181.75 327.1328125 C180.82155273 327.13376923 179.89310547 327.13472595 178.93652344 327.13571167 C176.96940035 327.13639355 175.00227504 327.13453872 173.03515625 327.13037109 C170.01296974 327.12502295 166.99093185 327.13031582 163.96875 327.13671875 C162.06249967 327.13605797 160.15624943 327.13477681 158.25 327.1328125 C156.88439941 327.13584885 156.88439941 327.13584885 155.49121094 327.13894653 C149.11494969 327.11494969 149.11494969 327.11494969 148 326 C147.87778475 324.55815707 147.82227242 323.11056856 147.79467773 321.66381836 C147.77473251 320.7429393 147.75478729 319.82206024 147.73423767 318.87327576 C147.71752518 317.87224319 147.70081268 316.87121063 147.68359375 315.83984375 C147.66281265 314.82024063 147.64203156 313.80063751 147.62062073 312.75013733 C147.55501148 309.47932952 147.49618766 306.20843863 147.4375 302.9375 C147.39432558 300.72590272 147.35071166 298.51431397 147.30664062 296.30273438 C147.1993186 290.86857849 147.09757377 285.43433918 147 280 C146.19065506 279.71138092 146.19065506 279.71138092 145.36495972 279.41693115 C142.88440009 278.52858561 140.40706672 277.6315498 137.9296875 276.734375 C137.08108154 276.43192871 136.23247559 276.12948242 135.3581543 275.81787109 C111.58827435 267.17219358 93.82044878 248.48441215 83 226 C74.97602174 207.89102163 73.65343419 188.58845203 75 169 C75.33 168.34 75.66 167.68 76 167 C90.19 167 104.38 167 119 167 C120.32239266 169.64478533 120.14384727 171.68477952 120.17578125 174.64453125 C120.52562303 193.85881435 121.58989227 209.41955563 135.5 223.9375 C138.80781864 227.105394 141.73064165 229.3579391 146 231 C147.64434859 229.35565141 147.2196855 227.42084472 147.30395508 225.15161133 C147.34261185 224.11575394 147.38126862 223.07989655 147.4210968 222.01264954 C147.55871837 217.21628927 147.65742189 212.42001501 147.73461914 207.62231445 C147.78607614 205.10511563 147.86084892 202.58827329 147.96020508 200.07250977 C149.10693849 183.82805224 149.10693849 183.82805224 142.91764832 169.41203308 C140.90820355 167.25493022 138.80788113 165.28825477 136.55517578 163.38819885 C133.89414344 161.01287763 131.75268141 158.2610424 129.5 155.5 C128.59849126 154.42918674 127.69509287 153.35995892 126.7890625 152.29296875 C126.1089209 151.48931885 126.1089209 151.48931885 125.41503906 150.66943359 C119.46124812 143.64527513 113.50971941 136.62405246 107.3125 129.8125 C103.53342795 125.64739371 99.97388634 121.33736061 96.43359375 116.96875 C91.72546206 111.22528277 86.85542347 105.61898387 82 100 C81.4416748 99.35385742 80.88334961 98.70771484 80.30810547 98.04199219 C75.36677619 92.32695662 70.42366773 86.61350162 65.4375 80.9375 C60.7705819 75.61537418 56.18259358 70.22486755 51.58056641 64.84667969 C49.05538858 61.89634835 46.52763993 58.94822196 44 56 C40.94002575 52.43086692 37.88077371 48.86112458 34.82421875 45.2890625 C34.3024707 44.6796582 33.78072266 44.07025391 33.24316406 43.44238281 C32.21983035 42.2468875 31.19702874 41.05093647 30.17480469 39.85449219 C26.87727872 36.00112907 23.52932186 32.19878108 20.109375 28.453125 C19 27 19 27 19 25 C18.34 25 17.68 25 17 25 C15.58561594 23.42713316 14.24395599 21.78860004 12.9375 20.125 C9.04536174 15.22027293 4.93797568 10.67062498 0.5546875 6.19140625 C0.04164062 5.46824219 -0.47140625 4.74507813 -1 4 C-0.59716797 1.86303711 -0.59716797 1.86303711 0 0 Z " fill="#F7F7F7" transform="translate(80,110)"/>
<path d="M0 0 C1.10472656 0.45246094 2.20945312 0.90492187 3.34765625 1.37109375 C19.05023283 8.49620195 29.46957995 19.76164871 35.875 35.875 C38.53682767 43.04959511 39.15913456 49.16074935 39.125 56.75 C39.12886719 57.62527344 39.13273437 58.50054687 39.13671875 59.40234375 C39.13542969 60.23378906 39.13414062 61.06523438 39.1328125 61.921875 C39.13168457 62.68081055 39.13055664 63.43974609 39.12939453 64.22167969 C39 66 39 66 38 67 C34.90918535 67.1011692 31.84117445 67.13968558 28.75 67.1328125 C27.82155273 67.13376923 26.89310547 67.13472595 25.93652344 67.13571167 C23.96940035 67.13639355 22.00227504 67.13453872 20.03515625 67.13037109 C17.01296974 67.12502295 13.99093185 67.13031582 10.96875 67.13671875 C9.06249967 67.13605797 7.15624943 67.13477681 5.25 67.1328125 C3.88439941 67.13584885 3.88439941 67.13584885 2.49121094 67.13894653 C-3.88505031 67.11494969 -3.88505031 67.11494969 -5 66 C-5.34761005 62.72415308 -5.67116823 59.45244891 -5.8984375 56.16601562 C-6.45294006 50.60558722 -8.03967223 47.95430903 -12 44 C-15.96318065 41.70552699 -19.47808029 41.54014376 -24 42 C-28.79176433 43.71197473 -32.28295822 45.58380524 -35 50 C-36.75705828 56.09183679 -36.22750401 61.21254289 -33.34375 66.8046875 C-30.88325789 70.82444495 -28.04098231 74.40461478 -25 78 C-24.36529785 78.75192627 -24.36529785 78.75192627 -23.71777344 79.51904297 C-20.17563297 83.7057779 -16.5921714 87.8561814 -13 92 C-12.46536133 92.61713867 -11.93072266 93.23427734 -11.37988281 93.87011719 C-9.20712367 96.37775071 -7.0337898 98.8848829 -4.85913086 101.39086914 C-1.20502709 105.60320091 2.43484846 109.82736973 6.0625 114.0625 C6.55145752 114.63323242 7.04041504 115.20396484 7.54418945 115.79199219 C10.06642791 118.73758706 12.58539305 121.68593821 15.1015625 124.63671875 C19.57310484 129.87489173 24.05172474 135.09297615 28.6875 140.1875 C33.3220397 145.30463091 37.68189467 150.61473607 42 156 C42.44134277 156.54172852 42.88268555 157.08345703 43.33740234 157.64160156 C63.04248378 181.82919189 76.73607815 209.1230413 74 241 C70.83211781 269.04162383 56.71897163 291.24362788 35.00390625 308.796875 C23.81914894 317 23.81914894 317 18 317 C16.80822213 314.61644426 16.84807402 313.0948659 16.80712891 310.43359375 C16.79106598 309.48500488 16.77500305 308.53641602 16.75845337 307.55908203 C16.71385711 303.19385509 16.67288795 298.82878098 16.64990234 294.46337891 C16.63340302 292.16867895 16.60619363 289.8740291 16.56787109 287.57958984 C16.51274707 284.26112348 16.49116775 280.94386432 16.4765625 277.625 C16.45389313 276.61107178 16.43122375 275.59714355 16.40786743 274.55249023 C16.42934153 267.21517701 18.30218743 262.27622197 22 256 C28.58601667 243.58254614 30.5007422 231.76049315 27 218 C22.1764724 202.94533325 12.83136817 190.83833875 2.1796875 179.390625 C-0.15054992 176.83488073 -2.32768896 174.1909597 -4.5 171.5 C-8.11149134 167.03579543 -11.88660694 162.76997886 -15.75390625 158.52734375 C-18.06187598 155.93037607 -20.25555863 153.26595987 -22.4375 150.5625 C-26.29941675 145.78715598 -30.37674224 141.26332315 -34.53515625 136.74609375 C-36.92707297 134.08124834 -39.19254884 131.35168175 -41.4375 128.5625 C-44.60913624 124.62721848 -47.92247519 120.87570032 -51.375 117.1875 C-68.30531722 98.96216202 -81.91204124 80.0149592 -81.52392578 54.25195312 C-80.80496727 37.22224462 -73.636313 23.07784711 -61.46435547 11.31445312 C-45.62253628 -2.90567934 -19.90005861 -8.24980141 0 0 Z " fill="#F4F4F4" transform="translate(271,66)"/>
<path d="M0 0 C1.59130989 0.0001133 1.59130989 0.0001133 3.21476746 0.00022888 C4.3585939 0.00539017 5.50242035 0.01055145 6.6809082 0.01586914 C8.43912651 0.01799156 8.43912651 0.01799156 10.23286438 0.02015686 C13.98249852 0.02576151 17.73207331 0.03831483 21.48168945 0.05102539 C24.02140213 0.05603979 26.56111575 0.0606028 29.10083008 0.06469727 C35.33197018 0.07573245 41.56307558 0.09247514 47.79418945 0.11352539 C48.4230957 1.94482422 48.4230957 1.94482422 48.79418945 4.11352539 C47.19220014 6.21006822 45.64918926 7.95401235 43.79418945 9.80102539 C42.77181079 10.85948033 41.75228898 11.92070196 40.7355957 12.98461914 C40.23302246 13.50910645 39.73044922 14.03359375 39.21264648 14.57397461 C36.61730119 17.39088466 34.37982564 20.46976302 32.1340332 23.56665039 C31.69188477 24.07711914 31.24973633 24.58758789 30.79418945 25.11352539 C30.13418945 25.11352539 29.47418945 25.11352539 28.79418945 25.11352539 C28.54797852 25.67942383 28.30176758 26.24532227 28.0480957 26.82836914 C26.57882722 29.50600797 24.8166651 31.44396151 22.73168945 33.67602539 C19.55633829 37.13912698 16.49590761 40.64547795 13.54418945 44.30102539 C8.86993568 50.07271266 4.01120453 55.67011274 -0.8659668 61.26977539 C-4.0863562 64.96840338 -7.27293699 68.69512092 -10.45581055 72.42602539 C-13.8800766 76.43711795 -17.3430833 80.40008245 -20.89331055 84.30102539 C-27.45765643 91.54444154 -33.65848221 99.060952 -39.20581055 107.11352539 C-43.49387928 106.63707331 -45.47228541 105.45450055 -48.20581055 102.11352539 C-48.20581055 101.45352539 -48.20581055 100.79352539 -48.20581055 100.11352539 C-48.86581055 100.11352539 -49.52581055 100.11352539 -50.20581055 100.11352539 C-51.62019461 98.54065855 -52.96185456 96.90212543 -54.26831055 95.23852539 C-58.13569766 90.39490464 -62.16129648 85.76682463 -66.3581543 81.20727539 C-70.21560734 76.83603896 -70.21560734 76.83603896 -70.17456055 73.80883789 C-68.84149205 70.09989733 -66.42193773 67.73775085 -63.70581055 64.98852539 C-62.60304501 63.83596917 -61.50281067 62.68098615 -60.4050293 61.52368164 C-59.86023926 60.95020996 -59.31544922 60.37673828 -58.75415039 59.78588867 C-55.78095228 56.57453468 -53.08926788 53.13689299 -50.3503418 49.72680664 C-48.20706099 47.11504916 -45.98200725 44.60987238 -43.70581055 42.11352539 C-40.61025858 38.71753858 -37.65429848 35.25181008 -34.76831055 31.67602539 C-30.91626435 26.91288653 -26.85070072 22.39955279 -22.7019043 17.89477539 C-19.36839989 14.1804481 -16.23518781 10.32080589 -13.1159668 6.42602539 C-9.01770912 1.46453552 -6.56533741 -0.01559463 0 0 Z " fill="#F3F3F3" transform="translate(372.205810546875,109.886474609375)"/>
<path d="M0 0 C2.64696937 1.57691792 4.17255303 2.58567938 6 5 C8.02937312 14.27054811 7.14605198 24.53789285 7.1328125 34.015625 C7.13387384 35.68672203 7.13526097 37.35781889 7.13694763 39.02891541 C7.13974363 43.50820121 7.13537069 47.98745117 7.12877274 52.46673203 C7.1249915 55.25627436 7.12293079 58.0458133 7.12130737 60.83535767 C7.1032673 87.16290362 6.94517966 113.48760014 6.59383392 139.81285095 C6.56246326 142.19028403 6.53271911 144.56773328 6.50323486 146.94519043 C6.45662557 150.64934275 6.40438185 154.3533713 6.34718513 158.05737495 C6.31714439 160.05635133 6.29138417 162.05539059 6.26573181 164.0544281 C6.24579666 165.22780228 6.22586151 166.40117645 6.20532227 167.61010742 C6.18977798 168.63359787 6.1742337 169.65708832 6.15821838 170.71159363 C6 173 6 173 5 174 C1.90918535 174.1011692 -1.15882555 174.13968558 -4.25 174.1328125 C-5.17844727 174.13376923 -6.10689453 174.13472595 -7.06347656 174.13571167 C-9.03059965 174.13639355 -10.99772496 174.13453872 -12.96484375 174.13037109 C-15.98703026 174.12502295 -19.00906815 174.13031582 -22.03125 174.13671875 C-23.93750033 174.13605797 -25.84375057 174.13477681 -27.75 174.1328125 C-29.11560059 174.13584885 -29.11560059 174.13584885 -30.50878906 174.13894653 C-36.88505031 174.11494969 -36.88505031 174.11494969 -38 173 C-38.10664867 171.56818914 -38.14618603 170.1312876 -38.15771484 168.69555664 C-38.16797699 167.78113297 -38.17823914 166.86670929 -38.18881226 165.92457581 C-38.19611359 164.92981735 -38.20341492 163.9350589 -38.2109375 162.91015625 C-38.23900049 160.82616394 -38.26766491 158.74217967 -38.296875 156.65820312 C-38.3382145 153.35522639 -38.37508037 150.05240041 -38.40136719 146.74926758 C-38.42886583 143.57341131 -38.4747336 140.39824836 -38.5234375 137.22265625 C-38.52669037 136.22992203 -38.52994324 135.23718781 -38.53329468 134.21437073 C-38.54986115 133.29679489 -38.56642761 132.37921906 -38.58349609 131.43383789 C-38.59158295 130.62411026 -38.5996698 129.81438263 -38.60800171 128.9801178 C-38.73736115 128.32667892 -38.86672058 127.67324005 -39 127 C-39.99 126.34 -40.98 125.68 -42 125 C-40.02 125.33 -38.04 125.66 -36 126 C-36 141.18 -36 156.36 -36 172 C-22.47 172 -8.94 172 5 172 C4.95973563 150.42523993 4.90302831 128.85072958 4.81609726 107.2761116 C4.7762654 97.25894141 4.74389401 87.24185025 4.72900391 77.22460938 C4.71600885 68.49492398 4.68909926 59.76541218 4.64538693 51.03582454 C4.6227237 46.41231283 4.60709222 41.78901561 4.60811615 37.16544342 C4.6088599 32.81511977 4.5910244 28.46527114 4.55883217 24.11507034 C4.55030135 22.51711568 4.54860474 20.91910793 4.55419731 19.32114029 C4.5608114 17.14120809 4.54298219 14.9627988 4.51898193 12.78302002 C4.51529476 11.56256611 4.51160759 10.3421122 4.50780869 9.08467484 C3.90365539 5.41475637 2.75377937 4.38078571 0 2 C0 1.34 0 0.68 0 0 Z " fill="#4E4E4E" transform="translate(266,263)"/>
<path d="M0 0 C2.97 0.495 2.97 0.495 6 1 C6 16.18 6 31.36 6 47 C19.53 47 33.06 47 47 47 C47 47.66 47 48.32 47 49 C41.03686834 49.02464574 35.07376605 49.042834 29.1105957 49.05493164 C27.08031702 49.05997278 25.05004198 49.06680557 23.01977539 49.07543945 C20.10822653 49.08751467 17.1967255 49.09323034 14.28515625 49.09765625 C12.91485008 49.10539818 12.91485008 49.10539818 11.51686096 49.11329651 C9.34424573 49.11349168 7.17172704 49.06211805 5 49 C3.43142032 47.43142032 3.85978289 45.87462184 3.84228516 43.69555664 C3.83202301 42.78113297 3.82176086 41.86670929 3.81118774 40.92457581 C3.80388641 39.92981735 3.79658508 38.9350589 3.7890625 37.91015625 C3.76099951 35.82616394 3.73233509 33.74217967 3.703125 31.65820312 C3.6617855 28.35522639 3.62491963 25.05240041 3.59863281 21.74926758 C3.57113417 18.57341131 3.5252664 15.39824836 3.4765625 12.22265625 C3.47330963 11.22992203 3.47005676 10.23718781 3.46670532 9.21437073 C3.45013885 8.29679489 3.43357239 7.37921906 3.41650391 6.43383789 C3.40841705 5.62411026 3.4003302 4.81438263 3.39199829 3.9801178 C3.26263885 3.32667892 3.13327942 2.67324005 3 2 C2.01 1.34 1.02 0.68 0 0 Z " fill="#909090" transform="translate(224,388)"/>
<path d="M0 0 C1.06087326 0.00007553 2.12174652 0.00015106 3.21476746 0.00022888 C4.3585939 0.00539017 5.50242035 0.01055145 6.6809082 0.01586914 C8.43912651 0.01799156 8.43912651 0.01799156 10.23286438 0.02015686 C13.98249852 0.02576151 17.73207331 0.03831483 21.48168945 0.05102539 C24.02140213 0.05603979 26.56111575 0.0606028 29.10083008 0.06469727 C35.33197018 0.07573245 41.56307558 0.09247514 47.79418945 0.11352539 C48.28918945 2.09352539 48.28918945 2.09352539 48.79418945 4.11352539 C47.14418945 5.43352539 45.49418945 6.75352539 43.79418945 8.11352539 C44.45418945 6.13352539 45.11418945 4.15352539 45.79418945 2.11352539 C38.35556345 2.12981671 30.91793222 2.18465559 23.47973633 2.26611328 C20.95017955 2.289289 18.42052633 2.30368796 15.89086914 2.30908203 C12.25126067 2.31837404 8.61316824 2.35937469 4.97387695 2.40649414 C3.84553436 2.40256149 2.71719177 2.39862885 1.55465698 2.39457703 C-5.21499825 2.45750292 -5.21499825 2.45750292 -10.96704102 5.65771484 C-11.70583496 6.46813232 -12.44462891 7.2785498 -13.20581055 8.11352539 C-11.91570063 5.23558788 -10.63219249 3.15168622 -8.20581055 1.11352539 C-5.17726865 0.10401143 -3.16575712 -0.00751961 0 0 Z " fill="#5A5A5A" transform="translate(372.205810546875,109.886474609375)"/>
<path d="M0 0 C7.45639508 -0.07608273 14.91269 -0.12861377 22.36938477 -0.16479492 C24.90588115 -0.17987863 27.44235148 -0.20034831 29.97875977 -0.22631836 C33.62522822 -0.26271881 37.27135173 -0.27973082 40.91796875 -0.29296875 C42.61822456 -0.31619453 42.61822456 -0.31619453 44.35282898 -0.33988953 C45.41355118 -0.34011612 46.47427338 -0.34034271 47.56713867 -0.34057617 C48.49757492 -0.34723801 49.42801117 -0.35389984 50.38664246 -0.36076355 C53.57143323 0.07888407 55.4136226 1.11439085 58 3 C58.66 3.99 59.32 4.98 60 6 C56.125 4.125 56.125 4.125 55 3 C53.31290653 2.87700834 51.62079097 2.82214742 49.92944336 2.79467773 C48.84839828 2.77473251 47.76735321 2.75478729 46.65354919 2.73423767 C45.4775264 2.71752518 44.3015036 2.70081268 43.08984375 2.68359375 C41.29408653 2.6524221 41.29408653 2.6524221 39.46205139 2.62062073 C35.62059513 2.55499721 31.77906799 2.49618097 27.9375 2.4375 C25.34048733 2.39432695 22.74348194 2.35071307 20.14648438 2.30664062 C13.76439883 2.19930284 7.38224207 2.09756069 1 2 C1.99 3.32 2.98 4.64 4 6 C3.67 6.66 3.34 7.32 3 8 C0.9375 6.25 0.9375 6.25 -1 4 C-0.62109375 1.859375 -0.62109375 1.859375 0 0 Z " fill="#5E5E5E" transform="translate(80,110)"/>
<path d="M0 0 C0.99 0.66 1.98 1.32 3 2 C3.36076355 4.4803772 3.36076355 4.4803772 3.34057617 7.64306641 C3.34034958 8.82413971 3.34012299 10.00521301 3.33988953 11.22207642 C3.32440567 12.50230682 3.30892181 13.78253723 3.29296875 15.1015625 C3.28872391 16.40829926 3.28447906 17.71503601 3.28010559 19.06137085 C3.26864632 22.53691786 3.23917049 26.01208927 3.20599365 29.48748779 C3.17531569 33.0332735 3.16160516 36.57911985 3.14648438 40.125 C3.11430135 47.08348771 3.06309229 54.04172583 3 61 C-5.56855451 59.45889307 -11.17784843 53.1496476 -17 47 C-16.67 46.34 -16.34 45.68 -16 45 C-15.34773437 45.68707031 -14.69546875 46.37414062 -14.0234375 47.08203125 C-12.71246094 48.43361328 -12.71246094 48.43361328 -11.375 49.8125 C-10.51648438 50.70582031 -9.65796875 51.59914063 -8.7734375 52.51953125 C-5.98467275 55.01370817 -3.40749838 56.49610409 0 58 C1.67566884 56.32433116 1.12746515 54.27611459 1.12939453 51.97705078 C1.13254669 50.90568878 1.13569885 49.83432678 1.13894653 48.73049927 C1.1369223 47.56388763 1.13489807 46.397276 1.1328125 45.1953125 C1.13376923 44.00525604 1.13472595 42.81519958 1.13571167 41.58908081 C1.13639382 39.06540881 1.13453715 36.54173506 1.13037109 34.01806641 C1.12503273 30.14872293 1.13031011 26.27949604 1.13671875 22.41015625 C1.13605779 19.96354141 1.13477626 17.51692664 1.1328125 15.0703125 C1.13483673 13.90774933 1.13686096 12.74518616 1.13894653 11.5473938 C1.13579437 10.46972748 1.13264221 9.39206116 1.12939453 8.28173828 C1.12859894 7.33211212 1.12780334 6.38248596 1.12698364 5.40408325 C1.09908312 2.85433623 1.09908312 2.85433623 0 0 Z " fill="#3D3D3D" transform="translate(226,283)"/>
<path d="M0 0 C0.33 0 0.66 0 1 0 C4.26707928 15.36305137 5.80965159 30.55730516 2 46 C1.67 46 1.34 46 1 46 C1.33 35.11 1.66 24.22 2 13 C1.34 13 0.68 13 0 13 C0 8.71 0 4.42 0 0 Z " fill="#757575" transform="translate(341,272)"/>
<path d="M0 0 C0.66 0 1.32 0 2 0 C2.96338808 2.89016424 3.12877169 4.74175255 3.1328125 7.74609375 C3.13410156 8.66583984 3.13539063 9.58558594 3.13671875 10.53320312 C3.13285156 11.49162109 3.12898438 12.45003906 3.125 13.4375 C3.12886719 14.39205078 3.13273437 15.34660156 3.13671875 16.33007812 C3.13542969 17.25111328 3.13414062 18.17214844 3.1328125 19.12109375 C3.13168457 19.9608374 3.13055664 20.80058105 3.12939453 21.66577148 C3.0051229 23.90758487 2.62396739 25.84895454 2 28 C1.34 28 0.68 28 0 28 C-0.103125 28.928125 -0.20625 29.85625 -0.3125 30.8125 C-1.03227796 34.14965236 -1.57142872 34.83186532 -4 37 C-3.80664062 36.44054687 -3.61328125 35.88109375 -3.4140625 35.3046875 C0.417097 23.50775083 1.51280373 12.30686279 0 0 Z " fill="#707070" transform="translate(299,284)"/>
<path d="M0 0 C2 1 2 1 3 3.43359375 C3.33 4.42488281 3.66 5.41617187 4 6.4375 C5.33336865 10.62213295 5.33336865 10.62213295 8 14 C8.33 15.010625 8.66 16.02125 9 17.0625 C9.65752556 20.12150806 9.65752556 20.12150806 12 21 C12.625 23.5625 12.625 23.5625 13 26 C13.66 26 14.32 26 15 26 C18.22265625 31.2734375 18.22265625 31.2734375 19 33 C18.67 33.66 18.34 34.32 18 35 C10.98751592 26.19709446 0 11.66415976 0 0 Z " fill="#818181" transform="translate(159,323)"/>
<path d="M0 0 C0.87043945 0.00128906 1.74087891 0.00257812 2.63769531 0.00390625 C9.13417037 0.10076015 15.02462754 0.96189777 21.125 3.3125 C17.85151681 4.3504337 16.8840154 4.25324149 13.3125 3.375 C4.1968721 1.15278225 -4.96147641 1.64579212 -13.875 4.3125 C-16.59062756 4.53044764 -19.14260245 4.4083736 -21.875 4.3125 C-15.40695273 0.00046849 -7.57464871 -0.04681127 0 0 Z " fill="#737373" transform="translate(249.875,62.6875)"/>
<path d="M0 0 C0.33 0 0.66 0 1 0 C1 7.26 1 14.52 1 22 C-7.61855595 20.27628881 -13.0937924 14.23843178 -19 8 C-18.67 7.34 -18.34 6.68 -18 6 C-17.34773437 6.68707031 -16.69546875 7.37414062 -16.0234375 8.08203125 C-14.71246094 9.43361328 -14.71246094 9.43361328 -13.375 10.8125 C-12.08722656 12.15248047 -12.08722656 12.15248047 -10.7734375 13.51953125 C-7.98467275 16.01370817 -5.40749838 17.49610409 -2 19 C-0.48578999 17.48578999 -0.78690144 16.07527232 -0.68359375 13.96484375 C-0.64169922 13.15595703 -0.59980469 12.34707031 -0.55664062 11.51367188 C-0.51732422 10.66353516 -0.47800781 9.81339844 -0.4375 8.9375 C-0.39431641 8.08349609 -0.35113281 7.22949219 -0.30664062 6.34960938 C-0.20023298 4.23327963 -0.09958269 2.11666187 0 0 Z " fill="#666666" transform="translate(228,322)"/>
<path d="M0 0 C17.82 0 35.64 0 54 0 C54 0.33 54 0.66 54 1 C46.79175615 1.14282731 39.58350337 1.28519715 32.37524414 1.42724609 C29.92211705 1.47564278 27.46899203 1.52414491 25.01586914 1.57275391 C21.49365773 1.64252886 17.97143907 1.7119269 14.44921875 1.78125 C12.79910042 1.81406067 12.79910042 1.81406067 11.11564636 1.84753418 C10.09481461 1.86755493 9.07398285 1.88757568 8.0222168 1.90820312 C6.67319527 1.93485046 6.67319527 1.93485046 5.29692078 1.96203613 C3.53147629 1.99121568 1.76568561 2 0 2 C0 1.34 0 0.68 0 0 Z " fill="#DFDFDF" transform="translate(81,112)"/>
<path d="M0 0 C1.26457031 0.05800781 2.52914062 0.11601563 3.83203125 0.17578125 C5.10433594 0.22089844 6.37664062 0.26601562 7.6875 0.3125 C8.66332031 0.37050781 9.63914063 0.42851563 10.64453125 0.48828125 C11.30453125 1.80828125 11.96453125 3.12828125 12.64453125 4.48828125 C11.96390625 4.32328125 11.28328125 4.15828125 10.58203125 3.98828125 C4.41672582 2.93886756 -0.50812233 3.57894364 -6.35546875 5.48828125 C-4.74338632 1.68280785 -4.21279754 0.61303806 0 0 Z " fill="#717171" transform="translate(246.35546875,104.51171875)"/>
<path d="M0 0 C0.33 0.66 0.66 1.32 1 2 C-1.9119655 8.84311893 -5.44564502 11.72282251 -12 15 C-10.38462556 11.10082032 -7.72075127 8.28706228 -4.875 5.25 C-4.40707031 4.74339844 -3.93914062 4.23679688 -3.45703125 3.71484375 C-2.30873459 2.47280859 -1.15491328 1.23588506 0 0 Z " fill="#8C8C8C" transform="translate(340,139)"/>
<path d="M0 0 C1.32 0.33 2.64 0.66 4 1 C2.58922306 2.7755291 1.17113464 4.54525031 -0.25 6.3125 C-1.03890625 7.29863281 -1.8278125 8.28476563 -2.640625 9.30078125 C-4.65198298 11.6018547 -6.4793158 13.30605396 -9 15 C-9 13.35 -9 11.7 -9 10 C-7.68 9.67 -6.36 9.34 -5 9 C-5 8.01 -5 7.02 -5 6 C-4.34 6 -3.68 6 -3 6 C-3 5.34 -3 4.68 -3 4 C-2.01 4 -1.02 4 0 4 C0 2.68 0 1.36 0 0 Z " fill="#A1A1A1" transform="translate(381,154)"/>
<path d="M0 0 C4.95532767 3.86757281 8.96476648 8.18876004 13 13 C12.67 13.66 12.34 14.32 12 15 C11.278125 14.236875 10.55625 13.47375 9.8125 12.6875 C7.21342788 9.94771109 7.21342788 9.94771109 4.3125 8.625 C1.0259243 6.31551437 0.79304351 3.8210278 0 0 Z " fill="#878787" transform="translate(197,183)"/>
<path d="M0 0 C0.66 0 1.32 0 2 0 C1.3726954 4.50284396 -0.39620149 8.24223673 -2.4375 12.25 C-2.75009766 12.88679688 -3.06269531 13.52359375 -3.38476562 14.1796875 C-5.74653518 18.87326759 -5.74653518 18.87326759 -8 20 C-7.731875 19.360625 -7.46375 18.72125 -7.1875 18.0625 C-5.64635858 14.08797739 -4.32390688 10.05115505 -3 6 C-2.34 6 -1.68 6 -1 6 C-0.67 4.02 -0.34 2.04 0 0 Z " fill="#868686" transform="translate(337,329)"/>
<path d="M0 0 C4.52615993 3.67832017 8.39424999 7.41086363 12 12 C11.67 12.66 11.34 13.32 11 14 C6.42379034 11.77373584 5.08807349 9.5557967 3 5 C2.01834406 3.98198643 1.02408568 2.9753197 0 2 C0 1.34 0 0.68 0 0 Z " fill="#6C6C6C" transform="translate(179,162)"/>
<path d="M0 0 C4.13937592 3.30015998 7.58662205 6.17324411 10 11 C9.236875 10.690625 8.47375 10.38125 7.6875 10.0625 C5.81210323 9.32106407 3.91315348 8.63771783 2 8 C1.855625 7.236875 1.71125 6.47375 1.5625 5.6875 C1.0367406 2.91827092 1.0367406 2.91827092 0 0 Z " fill="#868686" transform="translate(297,205)"/>
<path d="M0 0 C0.66 0 1.32 0 2 0 C2.45375 0.61875 2.9075 1.2375 3.375 1.875 C4.80960419 4.13006858 4.80960419 4.13006858 7.0625 4.8125 C9 6 9 6 10.25 9.625 C10.4975 10.73875 10.745 11.8525 11 13 C7.09674955 9.21155103 3.3553356 5.289295 0 1 C0 0.67 0 0.34 0 0 Z " fill="#8D8D8D" transform="translate(122,162)"/>
<path d="M0 0 C0.33 0 0.66 0 1 0 C1 7.26 1 14.52 1 22 C0.01 22 -0.98 22 -2 22 C-1.84152588 21.42926758 -1.68305176 20.85853516 -1.51977539 20.27050781 C-1.00638657 18.02789812 -0.79834104 15.96682085 -0.68359375 13.671875 C-0.64169922 12.87265625 -0.59980469 12.0734375 -0.55664062 11.25 C-0.49766602 10.0125 -0.49766602 10.0125 -0.4375 8.75 C-0.39431641 7.90953125 -0.35113281 7.0690625 -0.30664062 6.203125 C-0.20091457 4.13559329 -0.09998705 2.06781719 0 0 Z " fill="#5C5C5C" transform="translate(228,322)"/>
<path d="M0 0 C3.84691109 1.53876444 5.68986673 2.50978935 7.9375 6.0625 C8.288125 7.031875 8.63875 8.00125 9 9 C8.67 9.66 8.34 10.32 8 11 C6.66072279 9.54712339 5.32873153 8.08752741 4 6.625 C3.2575 5.81289062 2.515 5.00078125 1.75 4.1640625 C0 2 0 2 0 0 Z " fill="#858585" transform="translate(178,227)"/>
<path d="M0 0 C2.96659857 3.55991828 5.381348 7.65222543 7 12 C6.67 12.66 6.34 13.32 6 14 C2.84345952 9.41078616 0.42797202 5.70629354 0 0 Z " fill="#555555" transform="translate(194,144)"/>
<path d="M0 0 C1 4 1 4 0 6 C-0.99 6 -1.98 6 -3 6 C-3.66 7.65 -4.32 9.3 -5 11 C-5.33 10.34 -5.66 9.68 -6 9 C-4.02 6.03 -2.04 3.06 0 0 Z " fill="#777777" transform="translate(202,86)"/>
<path d="M0 0 C3.63 0 7.26 0 11 0 C11.66 1.32 12.32 2.64 13 4 C11.35 3.67 9.7 3.34 8 3 C8 2.34 8 1.68 8 1 C5.36 1 2.72 1 0 1 C0 0.67 0 0.34 0 0 Z " fill="#ADADAD" transform="translate(246,105)"/>
<path d="M0 0 C2.96404505 2.80804268 5.44499019 5.18315774 7 9 C5.8225266 8.26708288 4.65823146 7.51296199 3.5 6.75 C2.52546875 6.12351563 2.52546875 6.12351563 1.53125 5.484375 C1.0259375 4.99453125 0.520625 4.5046875 0 4 C0 2.68 0 1.36 0 0 Z " fill="#7C7C7C" transform="translate(312,222)"/>
<path d="M0 0 C2.31 0 4.62 0 7 0 C6.60196439 2.88575819 6.20990931 3.82189513 3.9375 5.75 C3.298125 6.1625 2.65875 6.575 2 7 C2.66 5.02 3.32 3.04 4 1 C2.68 0.67 1.36 0.34 0 0 Z " fill="#8C8C8C" transform="translate(414,111)"/>
<path d="M0 0 C1.32 0 2.64 0 4 0 C2.63016497 3.16115776 2.0109362 3.9927092 -1 6 C-1.042721 4.33388095 -1.04063832 2.66617115 -1 1 C-0.67 0.67 -0.34 0.34 0 0 Z " fill="#B3B3B3" transform="translate(355,184)"/>
<path d="M0 0 C0.33 0 0.66 0 1 0 C0.88590407 1.45922693 0.75834456 2.91740598 0.625 4.375 C0.55539062 5.18710937 0.48578125 5.99921875 0.4140625 6.8359375 C0 9 0 9 -2 11 C-2.28571429 3.57142857 -2.28571429 3.57142857 0 0 Z " fill="#7B7B7B" transform="translate(341,318)"/>
<path d="M0 0 C0.66 0.33 1.32 0.66 2 1 C0.35 2.98 -1.3 4.96 -3 7 C-3.66 5.68 -4.32 4.36 -5 3 C-4.34 3 -3.68 3 -3 3 C-3 2.34 -3 1.68 -3 1 C-2.01 0.67 -1.02 0.34 0 0 Z " fill="#959595" transform="translate(369,171)"/>
<path d="" fill="#000000" transform="translate(0,0)"/>
<path d="" fill="#000000" transform="translate(0,0)"/>
<path d="" fill="#000000" transform="translate(0,0)"/>
<path d="" fill="#000000" transform="translate(0,0)"/>
<path d="" fill="#000000" transform="translate(0,0)"/>
<path d="" fill="#000000" transform="translate(0,0)"/>
<path d="" fill="#000000" transform="translate(0,0)"/>
<path d="" fill="#000000" transform="translate(0,0)"/>
<path d="" fill="#000000" transform="translate(0,0)"/>
<path d="" fill="#000000" transform="translate(0,0)"/>
<path d="" fill="#000000" transform="translate(0,0)"/>
<path d="" fill="#000000" transform="translate(0,0)"/>
<path d="" fill="#000000" transform="translate(0,0)"/>
<path d="" fill="#000000" transform="translate(0,0)"/>
<path d="" fill="#000000" transform="translate(0,0)"/>
<path d="" fill="#000000" transform="translate(0,0)"/>
<path d="" fill="#000000" transform="translate(0,0)"/>
<path d="" fill="#000000" transform="translate(0,0)"/>
<path d="" fill="#000000" transform="translate(0,0)"/>
<path d="" fill="#000000" transform="translate(0,0)"/>
<path d="" fill="#000000" transform="translate(0,0)"/>
<path d="" fill="#000000" transform="translate(0,0)"/>
<path d="" fill="#000000" transform="translate(0,0)"/>
<path d="" fill="#000000" transform="translate(0,0)"/>
<path d="" fill="#000000" transform="translate(0,0)"/>
<path d="" fill="#000000" transform="translate(0,0)"/>
<path d="" fill="#000000" transform="translate(0,0)"/>
<path d="" fill="#000000" transform="translate(0,0)"/>
<path d="" fill="#000000" transform="translate(0,0)"/>
<path d="" fill="#000000" transform="translate(0,0)"/>
<path d="" fill="#000000" transform="translate(0,0)"/>
<path d="" fill="#000000" transform="translate(0,0)"/>
<path d="" fill="#000000" transform="translate(0,0)"/>
<path d="" fill="#000000" transform="translate(0,0)"/>
<path d="" fill="#000000" transform="translate(0,0)"/>
<path d="" fill="#000000" transform="translate(0,0)"/>
<path d="" fill="#000000" transform="translate(0,0)"/>
<path d="" fill="#000000" transform="translate(0,0)"/>
<path d="" fill="#000000" transform="translate(0,0)"/>
<path d="" fill="#000000" transform="translate(0,0)"/>
<path d="" fill="#000000" transform="translate(0,0)"/>
<path d="" fill="#000000" transform="translate(0,0)"/>
<path d="" fill="#000000" transform="translate(0,0)"/>
<path d="" fill="#000000" transform="translate(0,0)"/>
<path d="" fill="#000000" transform="translate(0,0)"/>
<path d="" fill="#000000" transform="translate(0,0)"/>
<path d="" fill="#000000" transform="translate(0,0)"/>
<path d="" fill="#000000" transform="translate(0,0)"/>
<path d="" fill="#000000" transform="translate(0,0)"/>
<path d="" fill="#000000" transform="translate(0,0)"/>
<path d="" fill="#000000" transform="translate(0,0)"/>
<path d="" fill="#000000" transform="translate(0,0)"/>
<path d="" fill="#000000" transform="translate(0,0)"/>
<path d="" fill="#000000" transform="translate(0,0)"/>
<path d="" fill="#000000" transform="translate(0,0)"/>
<path d="" fill="#000000" transform="translate(0,0)"/>
<path d="" fill="#000000" transform="translate(0,0)"/>
<path d="" fill="#000000" transform="translate(0,0)"/>
<path d="" fill="#000000" transform="translate(0,0)"/>
<path d="" fill="#000000" transform="translate(0,0)"/>
<path d="" fill="#000000" transform="translate(0,0)"/>
<path d="" fill="#000000" transform="translate(0,0)"/>
<path d="" fill="#000000" transform="translate(0,0)"/>
<path d="" fill="#000000" transform="translate(0,0)"/>
<path d="" fill="#000000" transform="translate(0,0)"/>
<path d="" fill="#000000" transform="translate(0,0)"/>
<path d="" fill="#000000" transform="translate(0,0)"/>
<path d="" fill="#000000" transform="translate(0,0)"/>
<path d="" fill="#000000" transform="translate(0,0)"/>
<path d="" fill="#000000" transform="translate(0,0)"/>
<path d="" fill="#000000" transform="translate(0,0)"/>
<path d="" fill="#000000" transform="translate(0,0)"/>
<path d="" fill="#000000" transform="translate(0,0)"/>
<path d="" fill="#000000" transform="translate(0,0)"/>
<path d="" fill="#000000" transform="translate(0,0)"/>
</svg>
